<?xml version="1.0" standalone="no"?>
<!DOCTYPE svg PUBLIC "-//W3C//DTD SVG 20010904//EN" "http://www.w3.org/TR/2001/REC-SVG-20010904/DTD/svg10.dtd">
<svg
  version="1.0"
  xmlns="http://www.w3.org/2000/svg"
  viewBox="0 0 3000.000000 2798.000000"
  preserveAspectRatio="xMidYMid meet"
>
  <style type="text/css"> path:nth-of-type(1) { --stroke-length: 315406.5; } path:nth-of-type(2) {
    --stroke-length: 1539.6978759765625; } path:nth-of-type(3) { --stroke-length: 5332.7729492187; }
    path:nth-of-type(4) { --stroke-length: 3094.474853515625; } path:nth-of-type(5) {
    --stroke-length: 3100.0224609375; } path:nth-of-type(6) { --stroke-length: 3089.41845703125; }
    path:nth-of-type(7) { --stroke-length: 3068.044677734375; } path { --animation-time-ms: 1000ms;
    --stroke-length: 100; stroke: #000000; stroke-width: 75px; stroke-dasharray:
    var(--stroke-length); stroke-dashoffset: var(--stroke-length); fill: transparent; animation:
    draw var(--animation-time-ms) ease-in-out forwards; /* animation: draw var(--animation-time-ms)
    ease-in-out forwards, fill var(--animation-time-ms) ease-in-out forwards; */ } @keyframes draw {
    to { stroke-dashoffset: 0; /* Revela el trazo */ } } @keyframes fill { to { fill: crimson; /*
    Rellena el trazo */ } } </style>
  <g
    transform="translate(0.000000,2798.000000) scale(0.100000,-0.100000)"
    fill="none"
  >
    <path
      style="--animation-time-ms: 5000ms"
      d="M14310 24660 c-542 -39 -1041 -145 -1379 -292 -321 -140 -684 -348
  -951 -546 -409 -303 -686 -615 -850 -955 -75 -154 -110 -262 -149 -457 -118
  -591 -134 -1040 -47 -1291 44 -127 121 -221 215 -261 25 -12 47 -21 48 -23 2
  -1 -6 -42 -17 -91 -31 -139 -27 -208 19 -345 68 -201 139 -319 226 -377 26
  -17 51 -32 57 -34 6 -2 3 -35 -8 -88 -11 -54 -15 -105 -11 -144 9 -91 52 -228
  107 -342 38 -79 61 -112 104 -152 31 -28 69 -53 85 -57 l29 -6 -23 -52 c-50
  -107 -44 -186 27 -402 77 -235 158 -369 250 -416 l37 -19 -16 -37 c-10 -24
  -18 -78 -21 -143 -4 -103 -3 -107 42 -246 26 -78 58 -164 72 -190 35 -66 105
  -136 165 -164 27 -13 49 -27 49 -32 0 -5 -7 -22 -15 -38 -37 -71 -29 -184 26
  -398 52 -203 120 -310 225 -353 30 -13 54 -25 54 -28 0 -3 -9 -35 -20 -70 -27
  -85 -35 -192 -21 -262 13 -62 63 -165 163 -334 l65 -110 7 -125 c3 -69 6 -627
  6 -1240 0 -613 5 -1162 10 -1220 47 -527 407 -957 950 -1134 213 -69 291 -81
  530 -80 154 0 242 5 312 17 54 9 105 17 113 17 13 0 15 -249 15 -2241 l0
  -2241 -47 -52 c-64 -71 -121 -160 -138 -220 -12 -39 -15 -110 -15 -321 l0
  -272 -162 -48 c-944 -276 -1752 -613 -2140 -892 -107 -77 -222 -184 -242 -227
  -14 -30 -16 -94 -16 -543 l0 -509 35 -59 c179 -296 609 -605 1125 -807 475
  -187 1028 -305 1693 -362 563 -49 1257 -45 1787 9 1004 104 1729 375 2141 801
  103 107 154 174 208 275 84 155 81 132 81 666 0 375 -3 480 -14 506 -16 39
  -74 94 -197 185 -489 361 -1298 716 -2256 988 l-243 69 0 271 0 271 -32 63
  c-20 41 -61 94 -115 149 l-83 86 0 2397 0 2397 38 10 c20 5 208 53 417 106
  306 77 391 102 444 131 180 99 319 254 389 434 59 152 56 90 62 1143 l5 968
  153 61 c616 243 1077 598 1252 963 51 105 73 176 115 364 127 573 120 1161
  -16 1316 -16 18 -51 42 -79 54 l-50 21 8 48 c4 26 7 94 6 152 0 122 -33 259
  -88 375 -41 88 -73 125 -130 156 -26 13 -46 30 -46 37 0 8 9 50 21 95 27 103
  22 213 -15 340 -50 171 -124 278 -231 334 -39 20 -53 32 -49 43 19 48 35 161
  29 205 -29 228 -133 440 -250 506 l-55 31 8 56 c4 32 6 104 6 162 -3 225 -112
  453 -249 522 -22 11 -41 21 -43 23 -1 1 7 40 18 86 37 155 23 260 -55 427 -69
  146 -139 233 -233 287 -1 1 7 37 18 80 22 86 26 189 9 250 -6 22 -38 95 -70
  163 -59 122 -120 200 -189 244 -23 14 -24 16 -12 67 36 155 -20 389 -162 686
  -322 672 -898 1082 -1671 1190 -316 45 -863 66 -1155 45z m241 -336 c138 -48
  165 -63 226 -126 93 -96 166 -228 253 -453 77 -201 119 -255 201 -255 100 0
  100 110 -1 383 -58 154 -92 207 -225 346 -110 115 -107 114 80 -13 186 -127
  252 -208 361 -449 101 -223 124 -255 191 -264 31 -4 42 -1 58 17 49 54 1 270
  -94 429 -63 104 -140 201 -255 319 -49 50 -85 92 -80 92 19 0 151 -73 204
  -113 75 -56 222 -199 280 -272 26 -33 87 -131 134 -218 125 -231 177 -297 229
  -297 78 1 80 108 7 315 -46 130 -122 245 -283 428 -37 42 -66 77 -62 77 3 0
  42 -23 87 -51 236 -146 313 -245 443 -569 36 -90 77 -179 91 -197 85 -112 217
  -63 216 79 -1 61 -68 203 -164 348 -34 52 -67 102 -72 110 -22 34 87 -70 142
  -136 149 -179 333 -505 445 -791 39 -98 46 -150 23 -159 -8 -3 -61 4 -117 15
  -131 27 -218 27 -305 0 -114 -35 -138 -51 -165 -111 -30 -68 -31 -137 -3 -175
  64 -87 283 -158 567 -184 67 -6 136 -17 153 -24 86 -35 144 -130 146 -236 0
  -33 -2 -63 -6 -67 -4 -4 -119 -10 -254 -13 -136 -4 -255 -10 -266 -15 -29 -11
  -66 -101 -66 -161 0 -45 5 -58 32 -88 75 -86 272 -144 558 -164 70 -5 141 -16
  161 -25 75 -32 130 -111 144 -208 8 -54 1 -84 -23 -93 -9 -3 -117 -10 -239
  -15 -122 -5 -233 -12 -246 -15 -58 -15 -119 -209 -86 -272 47 -87 272 -161
  561 -184 160 -12 189 -21 241 -68 48 -43 74 -98 83 -172 10 -91 12 -90 -232
  -100 -322 -13 -340 -18 -371 -96 -25 -65 -24 -134 3 -170 25 -34 128 -87 209
  -108 93 -24 251 -45 346 -45 168 0 245 -30 294 -115 35 -60 55 -169 34 -190
  -15 -15 -96 -26 -354 -45 -159 -12 -156 -11 -203 -105 -39 -76 -56 -145 -48
  -189 21 -110 229 -180 577 -195 173 -7 179 -8 225 -37 64 -40 105 -112 112
  -199 5 -63 4 -65 -22 -75 -14 -5 -108 -16 -209 -25 -225 -18 -285 -29 -364
  -65 -55 -25 -63 -32 -72 -67 -6 -21 -11 -60 -11 -87 0 -44 4 -53 39 -86 77
  -74 228 -102 526 -99 214 3 224 1 278 -49 42 -40 68 -145 51 -210 -8 -27 -52
  -41 -252 -77 -183 -34 -228 -47 -263 -81 -33 -31 -36 -60 -19 -178 19 -127 71
  -180 175 -178 27 0 118 6 200 12 83 6 184 10 225 8 l75 -3 25 -50 c24 -48 25
  -56 24 -250 0 -208 -21 -400 -65 -620 -39 -192 -110 -359 -217 -509 -121 -170
  -411 -430 -557 -500 -220 -106 -712 -248 -1475 -428 l-225 -53 -225 0 c-243 0
  -296 7 -520 66 -128 34 -323 108 -385 146 -76 48 -218 203 -304 333 -250 378
  -529 1104 -730 1901 l-49 196 15 82 c9 45 17 81 18 79 2 -2 76 -204 165 -448
  282 -776 383 -1026 545 -1350 225 -449 367 -609 615 -689 219 -72 546 -23 610
  92 14 25 13 30 -9 72 -26 50 -82 101 -236 217 -68 51 -113 94 -141 134 -77
  110 -167 309 -234 517 l-22 67 -26 -19 c-52 -36 -195 -103 -286 -132 -172 -57
  -256 -49 -310 29 -25 37 -56 136 -56 180 0 22 6 18 64 -36 36 -33 75 -63 86
  -67 56 -18 136 24 570 292 151 93 297 181 323 196 122 67 650 207 1022 272
  637 109 801 168 820 295 7 48 -14 160 -39 208 -23 43 -78 89 -121 101 -83 23
  -298 7 -548 -39 -308 -56 -719 -160 -845 -214 -210 -88 -448 -243 -720 -469
  -46 -38 -84 -67 -86 -66 -1 2 -38 72 -80 154 -43 83 -82 154 -86 159 -5 5 -34
  -14 -67 -44 -156 -143 -329 -250 -404 -250 -72 0 -115 69 -160 255 -28 116
  -24 120 26 25 47 -90 80 -124 126 -134 35 -7 132 18 177 46 53 32 187 144 405
  336 108 97 223 194 255 217 134 98 377 230 468 254 64 17 279 39 599 61 495
  34 508 35 569 63 69 32 151 108 166 153 23 69 -14 161 -105 262 l-47 52 -139
  0 c-307 0 -964 -99 -1194 -181 -208 -73 -514 -247 -747 -426 -31 -23 -60 -43
  -65 -43 -4 0 -39 71 -77 158 -38 86 -72 160 -76 165 -3 4 -33 -14 -66 -39 -95
  -75 -252 -175 -313 -200 -64 -27 -127 -31 -157 -10 -30 21 -70 118 -88 211
  -32 173 -31 178 14 71 53 -124 102 -164 189 -151 97 14 186 71 524 334 112 88
  234 179 273 204 117 76 326 176 444 213 72 23 314 33 752 34 388 0 410 1 463
  21 62 23 127 69 159 112 16 21 21 43 21 86 0 49 -7 73 -48 155 -26 53 -58 103
  -70 111 -40 26 -171 38 -342 31 -350 -13 -886 -93 -1100 -164 -191 -62 -468
  -213 -702 -380 -64 -45 -117 -81 -118 -80 -1 2 -33 75 -70 163 -38 88 -72 164
  -75 168 -4 4 -20 -3 -36 -16 -93 -77 -337 -227 -350 -214 -2 2 -1 31 2 64 6
  57 8 61 40 72 53 19 189 112 450 308 133 99 274 200 315 223 97 57 255 131
  354 165 113 39 238 46 770 39 498 -7 490 -8 586 58 151 103 124 252 -67 364
  l-49 29 -260 0 c-273 -1 -436 -13 -780 -61 -99 -14 -214 -34 -255 -45 -218
  -58 -503 -197 -777 -381 -90 -60 -103 -66 -111 -50 -5 9 -37 88 -71 174 l-63
  157 -81 -58 c-232 -164 -399 -228 -457 -176 -47 42 -81 152 -95 300 l-6 70 34
  -82 c43 -103 60 -129 99 -149 44 -23 141 -13 207 21 62 31 293 185 501 334
  179 129 371 229 555 291 l120 40 215 -1 c118 0 366 -8 550 -18 354 -18 389
  -17 475 23 103 47 156 130 134 209 -24 88 -151 198 -244 210 -193 27 -799 -14
  -1173 -79 -234 -40 -535 -177 -860 -390 -62 -41 -116 -74 -120 -74 -4 0 -31
  62 -61 138 -30 75 -60 151 -68 169 l-13 32 -112 -76 c-212 -143 -362 -199
  -424 -158 -46 30 -85 151 -98 300 l-6 70 28 -71 c41 -101 67 -139 109 -159 49
  -23 130 -14 204 23 67 34 249 156 456 304 234 167 385 248 609 325 l109 38
  220 -2 c121 -1 348 -9 504 -17 371 -21 409 -20 478 4 135 47 209 162 156 240
  -117 176 -147 185 -558 184 -389 -1 -840 -47 -1032 -104 -199 -59 -458 -184
  -707 -342 -60 -38 -110 -67 -111 -66 -1 2 -30 80 -65 173 -35 94 -64 171 -65
  172 -1 2 -46 -27 -101 -63 -136 -91 -289 -164 -359 -171 -68 -7 -94 8 -123 71
  -24 51 -52 194 -52 265 l0 46 24 -67 c32 -91 55 -128 97 -156 30 -21 42 -23
  99 -18 91 8 146 38 492 269 317 211 452 284 651 352 59 20 139 40 178 44 85 9
  353 -2 713 -29 344 -26 410 -26 479 0 102 38 158 95 165 169 5 58 -13 98 -72
  159 -68 71 -186 91 -531 92 -274 0 -847 -19 -935 -31 -195 -28 -486 -158 -818
  -366 -57 -36 -105 -63 -107 -61 -12 13 -138 277 -161 338 -26 70 -28 86 -29
  220 0 80 6 186 14 235 l14 90 27 -100 c43 -161 138 -371 102 -225 -11 46 -16
  115 -16 235 -1 150 2 179 22 242 41 131 127 213 231 221 78 6 128 -18 215 -98
  108 -101 261 -351 345 -561 l22 -56 67 19 c37 10 143 32 235 48 93 15 171 31
  174 34 3 2 -78 170 -178 373 -182 365 -184 369 -259 444 -58 59 -94 85 -160
  117 -107 53 -238 90 -371 105 l-103 12 70 32 c181 81 368 62 562 -57 129 -80
  226 -182 307 -325 178 -310 252 -387 317 -328 48 43 -11 252 -149 528 -35 69
  -156 202 -243 268 -19 15 -32 27 -28 27 3 0 52 -16 109 -36z m-1477 -371
  c-146 -168 -285 -367 -362 -519 -75 -149 -119 -329 -108 -439 23 -227 359
  -1275 841 -2624 48 -135 90 -261 92 -281 l5 -37 -93 13 c-52 7 -101 13 -109
  14 -9 0 -24 25 -39 68 -13 37 -234 648 -491 1357 -515 1419 -492 1344 -493
  1590 0 108 4 141 22 194 12 35 20 66 17 68 -9 9 -187 -150 -316 -283 -307
  -316 -495 -623 -555 -904 -12 -60 -35 -730 -24 -730 2 0 127 51 278 114 151
  63 268 109 260 102 -40 -36 -713 -456 -720 -449 -17 18 -41 196 -46 348 -4
  145 -2 179 27 365 80 519 207 840 458 1159 120 151 329 336 512 451 69 44 902
  509 913 509 4 1 -27 -38 -69 -86z m-397 -2401 c58 -119 38 -193 -80 -292 -144
  -122 -415 -299 -784 -514 l-201 -117 -15 -67 c-8 -37 -21 -95 -28 -129 -7 -35
  -16 -63 -19 -63 -4 0 -11 15 -17 33 -6 17 -26 76 -46 129 l-35 97 287 203
  c157 111 378 268 491 348 113 80 229 161 258 180 102 69 122 167 67 335 -12
  37 96 -89 122 -143z m-59 -610 c-1 -4 -16 -37 -31 -73 l-29 -66 -270 -159
  c-149 -87 -276 -161 -282 -163 -6 -2 21 27 59 64 77 73 79 74 -104 -34 -57
  -34 -105 -60 -107 -58 -13 13 111 99 408 283 189 117 347 212 351 213 5 1 7
  -3 5 -7z m280 -128 c89 -117 106 -223 48 -299 -79 -103 -522 -401 -969 -651
  -98 -55 -86 -35 -129 -224 l-24 -105 -48 138 c-27 76 -47 139 -45 141 4 4 701
  497 946 668 127 90 143 105 162 148 26 61 27 129 2 204 -24 73 -10 69 57 -20z
  m-37 -761 l-30 -68 -273 -162 c-150 -89 -276 -162 -281 -162 -4 -1 23 29 60
  65 75 73 79 74 -106 -35 -57 -34 -105 -60 -107 -58 -13 13 108 96 411 282 192
  118 351 213 353 211 2 -3 -10 -35 -27 -73z m903 -134 c75 -29 129 -78 163
  -147 l28 -57 0 -970 c0 -533 -4 -2014 -8 -3290 -6 -1734 -5 -2334 4 -2375 37
  -179 164 -303 364 -355 32 -8 76 -15 98 -15 61 0 1068 195 1612 311 386 83
  571 131 646 168 169 81 288 231 365 461 l29 85 3 796 3 796 75 26 75 26 -4
  -952 c-4 -1033 -1 -988 -60 -1149 -55 -151 -121 -226 -225 -257 -170 -51 -797
  -219 -1102 -295 -941 -236 -1401 -315 -1583 -272 -233 55 -391 242 -485 576
  l-27 95 -5 3300 -5 3300 -24 58 c-13 33 -42 79 -65 103 -24 24 -40 46 -38 49
  13 13 116 3 166 -16z m-316 -123 c75 -39 128 -141 143 -273 10 -93 10 -498 0
  -547 -5 -25 -17 -8 -110 162 -58 105 -106 190 -108 188 -2 -2 15 -63 37 -136
  41 -132 49 -183 15 -93 -10 27 -51 132 -92 235 -81 206 -89 260 -58 366 23 76
  57 112 106 112 22 0 52 -6 67 -14z m-398 -220 l0 -94 -167 -109 c-172 -113
  -389 -244 -571 -348 -61 -34 -107 -67 -112 -79 -4 -12 -17 -68 -30 -126 -12
  -58 -25 -108 -29 -112 -4 -5 -28 49 -53 120 -34 95 -43 130 -34 139 11 12 988
  703 993 703 2 0 3 -42 3 -94z m273 -446 c31 -85 94 -262 141 -394 l86 -239 0
  -1579 0 -1579 -22 7 c-12 3 -73 28 -137 55 -63 27 -116 47 -118 46 -1 -2 54
  -80 122 -174 l125 -170 20 -1075 c12 -591 20 -1109 18 -1152 l-3 -77 -76 50
  c-162 107 -278 267 -299 416 -6 43 -10 609 -10 1478 l0 1408 45 106 45 105 0
  1466 c0 806 2 1463 4 1461 2 -2 29 -74 59 -159z m-293 31 c0 -5 -5 -32 -11
  -59 l-12 -50 -176 -103 c-262 -153 -257 -151 -176 -74 39 37 59 62 45 54 -24
  -12 -158 -90 -230 -133 l-35 -21 26 33 c16 21 128 97 290 197 145 90 267 164
  272 164 4 1 7 -3 7 -8z m14 -582 c0 -55 -5 -84 -15 -93 -17 -16 -162 -103
  -374 -226 -88 -51 -161 -93 -162 -94 -1 0 -13 -55 -28 -121 -14 -66 -28 -127
  -31 -135 -3 -8 -28 46 -55 120 -45 125 -47 136 -31 147 9 7 166 118 347 247
  182 129 335 235 340 235 6 1 10 -31 9 -80z m-4 -422 l0 -52 -80 -47 c-44 -26
  -80 -45 -80 -43 0 2 28 31 63 65 l62 62 -50 -28 c-27 -16 -89 -52 -137 -80
  -92 -55 -108 -57 -58 -9 22 21 255 175 278 184 1 1 2 -23 2 -52z m0 -611 l0
  -75 -133 -75 -133 -76 -28 -135 c-16 -74 -31 -134 -32 -132 -6 6 -94 251 -94
  261 1 8 402 302 418 305 1 1 2 -32 2 -73z m-5 -395 c-3 -6 -11 -11 -17 -11 -6
  0 -6 6 2 15 14 17 26 13 15 -4z m-19 -725 c-14 -56 -28 -121 -32 -144 -7 -44
  -18 -54 -27 -24 -2 9 -23 68 -45 129 l-41 113 82 58 82 58 3 -43 c2 -25 -8
  -90 -22 -147z m1394 97 c39 -105 22 -166 -69 -242 -56 -47 -221 -161 -233
  -161 -4 0 -8 24 -8 53 l0 52 81 65 c145 115 178 170 179 288 1 35 2 36 15 18
  8 -11 24 -44 35 -73z m-255 -897 c211 -380 378 -622 454 -660 43 -22 160 -27
  364 -16 166 10 673 56 822 76 28 4 48 4 45 1 -3 -3 -113 -35 -245 -71 -504
  -137 -841 -213 -985 -223 -167 -11 -358 52 -473 157 l-55 50 -5 397 c-3 219
  -8 409 -12 423 -14 45 10 10 90 -134z m1914 -1141 c0 -93 -4 -244 -9 -335 -9
  -153 -12 -169 -40 -227 -18 -37 -49 -78 -76 -102 -44 -39 -169 -110 -177 -101
  -5 6 -207 861 -207 875 0 6 111 47 248 91 l247 80 6 -56 c4 -30 7 -131 8 -225z
  m561 171 l215 -74 3 -160 2 -161 -187 49 c-103 27 -188 48 -189 47 -1 -1 84
  -61 190 -132 l191 -131 3 -54 c2 -29 -4 -88 -14 -129 -30 -135 -3 -130 -235
  -45 -112 41 -204 74 -206 74 -2 0 -3 178 -3 395 0 217 3 395 8 395 4 0 104
  -33 222 -74z m-1584 -651 c57 -236 102 -430 101 -431 -1 -1 -195 -39 -432 -84
  -236 -44 -436 -83 -442 -85 -10 -3 -13 103 -13 511 l0 516 23 -7 c47 -15 361
  -16 482 -1 66 7 133 13 149 12 l30 -1 102 -430z m1519 -319 c35 -13 81 -35
  100 -50 44 -34 46 -68 6 -152 -37 -78 -94 -138 -146 -153 -180 -52 -1693 -323
  -2010 -361 -94 -11 -103 -11 -156 9 -54 21 -169 95 -169 109 0 4 253 58 561
  121 524 107 562 114 571 97 6 -10 29 -26 52 -37 75 -34 277 -18 326 26 24 22
  26 72 4 103 -18 27 -29 22 140 57 71 15 153 35 182 45 83 29 203 95 268 147
  32 27 68 54 80 61 28 17 108 8 191 -22z m-965 -1481 c49 -25 65 -88 63 -240
  -1 -71 -3 -1096 -5 -2278 -3 -2065 -2 -2147 15 -2147 34 0 106 22 118 37 15
  17 17 95 59 1778 16 677 31 1275 33 1330 2 55 3 -647 2 -1560 l0 -1660 -70
  -53 c-38 -29 -106 -67 -150 -85 -75 -30 -88 -32 -200 -32 -107 0 -127 3 -184
  27 -36 15 -93 46 -128 70 l-63 43 0 165 0 165 59 -130 59 -130 43 -7 c24 -3
  59 -7 76 -7 l33 -1 2 2248 3 2247 23 62 c30 79 58 121 101 150 39 27 71 29
  111 8z m-627 -4814 c7 -36 73 -85 186 -140 118 -57 207 -75 344 -68 160 7 284
  54 423 159 43 32 59 39 90 36 70 -6 71 -59 2 -134 -45 -49 -148 -104 -243
  -130 -78 -22 -371 -30 -488 -15 -182 24 -310 74 -377 148 -54 58 -53 87 2 135
  24 21 46 38 49 38 4 0 9 -13 12 -29z m1147 -728 c-1 -351 -4 -456 -14 -486
  -44 -123 -169 -209 -370 -254 -92 -21 -381 -23 -485 -4 -193 35 -329 111 -382
  213 -18 35 -19 64 -19 503 0 256 2 465 5 465 3 0 64 -21 135 -47 l130 -46 0
  -419 c0 -377 5 -469 23 -395 3 12 33 162 67 332 33 171 65 334 71 363 l10 52
  185 0 184 0 0 -361 c0 -400 7 -439 46 -243 12 60 43 220 70 356 l48 248 140
  84 c78 47 144 85 149 85 4 1 7 -200 7 -446z m595 -458 c935 -285 1610 -513
  1800 -607 168 -84 189 -194 61 -323 -25 -25 -46 -48 -46 -50 0 -14 25 2 116
  69 54 41 100 71 102 66 6 -17 -48 -109 -107 -181 -251 -311 -816 -539 -1591
  -643 -817 -109 -1967 -93 -2900 40 -742 106 -1395 310 -1735 543 l-70 47 -3
  175 -2 174 150 88 c82 48 152 87 154 87 3 0 -6 -16 -19 -36 -56 -82 -84 -201
  -66 -283 60 -282 374 -436 1146 -561 222 -36 548 -74 800 -94 263 -21 285 -22
  285 -14 0 5 -5 8 -10 8 -37 0 -522 210 -565 244 -30 24 -30 24 -13 59 39 82
  328 390 619 659 l104 96 87 -42 c133 -66 212 -81 408 -80 185 1 291 18 482 80
  l108 35 382 -308 c211 -169 463 -371 560 -450 159 -128 207 -161 196 -134 -1
  4 -199 223 -438 486 -239 263 -439 484 -443 491 -4 7 41 -8 100 -35 1481 -658
  1699 -753 1662 -717 -2 2 -274 160 -604 352 -330 191 -710 411 -845 489 l-245
  143 -3 122 c-2 112 -1 121 15 117 10 -3 176 -53 368 -112z m-3305 -1690 c386
  -85 860 -155 1330 -195 1002 -85 1951 -36 2820 146 90 19 168 34 172 34 5 0 8
  -133 8 -295 l0 -294 -37 -11 c-86 -23 -361 -82 -543 -115 -359 -64 -726 -109
  -1110 -136 -225 -16 -848 -16 -1055 0 -617 46 -1161 154 -1602 318 l-128 48
  -3 268 c-2 253 -1 268 15 263 10 -3 70 -17 133 -31z"
    />
    <path
      d="M18500 17501 c-75 -16 -371 -98 -378 -105 -1 -2 107 -6 240 -9 243
  -7 324 -17 401 -51 l37 -16 0 71 c0 65 -2 73 -29 100 -28 27 -34 29 -108 28
  -43 0 -116 -9 -163 -18z"
    />
    <path
      d="M16990 17248 c-474 -66 -620 -95 -826 -163 -157 -52 -277 -110 -402
  -196 l-93 -64 6 -60 c7 -71 61 -238 106 -327 126 -252 337 -457 528 -513 23
  -7 24 -5 17 26 -3 18 -30 83 -58 144 -42 90 -53 122 -56 177 -4 66 -3 69 29
  101 21 20 63 45 109 62 41 15 89 38 106 51 29 21 62 79 52 89 -3 3 -43 10 -89
  16 -140 18 -134 15 -113 47 30 46 83 78 231 141 136 57 143 67 57 77 -37 3
  -109 4 -161 0 -51 -3 -93 -3 -93 2 0 15 105 77 215 127 61 27 176 87 257 132
  81 46 175 95 210 109 93 38 91 40 -32 22z"
    />
    <path
      d="M18575 17183 c-53 -13 -85 -73 -85 -163 0 -128 -50 -379 -105 -525
  -39 -102 -110 -235 -164 -307 -59 -78 -175 -187 -230 -219 -22 -12 -41 -26
  -41 -31 0 -32 146 47 268 145 193 156 364 460 452 801 41 159 45 197 26 238
  -22 46 -74 72 -121 61z"
    />
    <path
      d="M18179 17085 c-46 -25 -56 -65 -62 -245 -14 -405 -144 -735 -370
  -946 -44 -41 -84 -74 -89 -74 -4 0 -8 -4 -8 -10 0 -19 26 -10 101 39 242 155
  421 431 525 809 46 168 68 323 53 369 -20 61 -93 89 -150 58z"
    />
    <path
      d="M17793 17000 c-17 -10 -36 -27 -41 -37 -5 -10 -12 -86 -15 -169 -19
  -460 -166 -818 -415 -1016 -113 -90 -30 -67 98 28 183 134 332 355 429 637 71
  208 115 450 92 509 -12 31 -65 68 -96 68 -11 0 -34 -9 -52 -20z"
    />
    <path
      d="M17303 16880 c-17 -10 -36 -27 -41 -37 -5 -10 -12 -86 -15 -169 -20
  -463 -153 -797 -405 -1014 -70 -60 -67 -77 6 -34 303 176 525 571 597 1061 19
  133 11 169 -48 196 -45 22 -55 21 -94 -3z"
    />
  </g>
</svg>